<svg width="44" height="39" viewBox="0 0 44 39" fill="none" xmlns="http://www.w3.org/2000/svg">
<g clip-path="url(#clip0_145_2674)">
<path d="M19.584 0.666626V4.33329M25.084 0.666626V4.33329M15.0007 8.91663H11.334M15.0007 14.4166H11.334M33.334 8.91663H29.6673M33.334 14.4166H29.6673M22.334 31.8333C23.1883 31.8333 23.6155 31.8333 23.9528 31.9745C24.4015 32.1601 24.7582 32.5161 24.9447 32.9645C25.084 33.3018 25.084 33.729 25.084 34.5833C25.084 35.4376 25.084 35.8648 24.9428 36.2021C24.7572 36.6508 24.4011 37.0075 23.9528 37.194C23.6155 37.3333 23.1883 37.3333 22.334 37.3333C21.4797 37.3333 21.0525 37.3333 20.7152 37.194C20.2665 37.0083 19.9098 36.6504 19.7233 36.2021C19.584 35.8648 19.584 35.4376 19.584 34.5833C19.584 33.729 19.584 33.3018 19.7252 32.9645C19.9108 32.5158 20.2668 32.1591 20.7152 31.9726C21.0525 31.8333 21.4797 31.8333 22.334 31.8333ZM22.334 31.8333V19M24.7778 4.33329H19.8902C17.5857 4.33329 16.4307 4.33329 15.7157 5.04829C15.0007 5.76696 15.0007 6.91829 15.0007 9.22463V14.1123C15.0007 16.4168 15.0007 17.57 15.7157 18.2868C16.4325 19.0018 17.5857 19.0018 19.8902 19.0018H24.7778C27.0823 19.0018 28.2355 19.0018 28.9523 18.2868C29.6673 17.57 29.6673 16.4168 29.6673 14.1123V9.22279C29.6673 6.91829 29.6673 5.76513 28.9523 5.05013C28.2355 4.33329 27.0823 4.33329 24.7778 4.33329ZM6.96515 37.194C7.30248 37.3333 7.72965 37.3333 8.58398 37.3333C9.43832 37.3333 9.86548 37.3333 10.2028 37.194C10.6511 37.0075 11.0072 36.6508 11.1928 36.2021C11.334 35.8648 11.334 35.4376 11.334 34.5833C11.334 33.729 11.334 33.3018 11.1947 32.9645C11.0082 32.5161 10.6515 32.1601 10.2028 31.9745C9.86548 31.8333 9.43832 31.8333 8.58398 31.8333C7.72965 31.8333 7.30248 31.8333 6.96515 31.9726C6.51683 32.1591 6.16079 32.5158 5.97515 32.9645C5.83398 33.3018 5.83398 33.729 5.83398 34.5833C5.83398 35.4376 5.83398 35.8648 5.97332 36.2021C6.15978 36.6504 6.51649 37.0083 6.96515 37.194Z" stroke="#1F1F1F" stroke-width="3" stroke-linecap="round" stroke-linejoin="round"/>
<path d="M8.58398 31.8333C8.58398 29.2593 8.58398 27.9705 9.20182 27.0465C9.4694 26.6459 9.81329 26.302 10.2138 26.0345C11.1378 25.4166 12.4267 25.4166 15.0007 25.4166H29.6673C32.2413 25.4166 33.5302 25.4166 34.4542 26.0345C34.8538 26.3021 35.1985 26.6468 35.4662 27.0465C36.084 27.9705 36.084 29.2593 36.084 31.8333M36.084 31.8333C36.9383 31.8333 37.3655 31.8333 37.7028 31.9745C38.1515 32.1601 38.5082 32.5161 38.6947 32.9645C38.834 33.3018 38.834 33.729 38.834 34.5833C38.834 35.4376 38.834 35.8648 38.6928 36.2021C38.5072 36.6508 38.1511 37.0075 37.7028 37.194C37.3655 37.3333 36.9383 37.3333 36.084 37.3333C35.2297 37.3333 34.8025 37.3333 34.4652 37.194C34.0165 37.0083 33.6598 36.6504 33.4733 36.2021C33.334 35.8648 33.334 35.4376 33.334 34.5833C33.334 33.729 33.334 33.3018 33.4752 32.9645C33.6608 32.5158 34.0168 32.1591 34.4652 31.9726C34.8025 31.8333 35.2297 31.8333 36.084 31.8333Z" stroke="#1F1F1F" stroke-width="3" stroke-linecap="round" stroke-linejoin="round"/>
</g>
<defs>
<clipPath id="clip0_145_2674">
<rect width="44" height="38.72" fill="white"/>
</clipPath>
</defs>
</svg>
