<svg width="5" height="9" viewBox="0 0 5 9" fill="none" xmlns="http://www.w3.org/2000/svg">
<path d="M0.697794 0.236812C0.634475 0.31138 0.58424 0.399954 0.549965 0.497462C0.51569 0.59497 0.498047 0.699498 0.498047 0.805062C0.498047 0.910627 0.51569 1.01515 0.549965 1.11266C0.58424 1.21017 0.634475 1.29874 0.697794 1.37331L3.34793 4.50071L0.697794 7.6281C0.570083 7.77881 0.498336 7.98322 0.498336 8.19635C0.498336 8.40949 0.570083 8.61389 0.697794 8.7646C0.825504 8.91531 0.998717 8.99998 1.17933 8.99998C1.35994 8.99998 1.53315 8.91531 1.66086 8.7646L4.79595 5.06493C4.85926 4.99036 4.9095 4.90179 4.94377 4.80428C4.97805 4.70677 4.99569 4.60224 4.99569 4.49668C4.99569 4.39111 4.97805 4.28658 4.94377 4.18908C4.9095 4.09157 4.85926 4.003 4.79595 3.92843L1.66086 0.228751C1.40131 -0.0775401 0.964173 -0.0775399 0.697794 0.236812Z" fill="#B1B5C3"/>
</svg>
