<svg width="28" height="28" viewBox="0 0 28 28" fill="none" xmlns="http://www.w3.org/2000/svg">
<path d="M25.2087 16.0417V13.75C25.2087 12.7886 25.2087 11.9342 25.1939 11.1719H2.30677C2.29199 11.9342 2.29199 12.7886 2.29199 13.75V16.0417C2.29199 20.3628 2.29199 22.5235 3.63442 23.8659C4.97685 25.2083 7.13745 25.2083 11.4587 25.2083H16.042C20.3632 25.2083 22.5239 25.2083 23.8662 23.8659C25.2087 22.5235 25.2087 20.3628 25.2087 16.0417Z" fill="#B1B5C3"/>
<path d="M8.88054 2.8645C8.88054 2.38989 8.49578 2.00513 8.02116 2.00513C7.54654 2.00513 7.16179 2.38989 7.16179 2.8645V4.67407C5.51255 4.80613 4.42985 5.13024 3.63442 5.92568C2.83898 6.72111 2.51487 7.80381 2.38281 9.45304H25.1178C24.9858 7.80381 24.6616 6.72111 23.8662 5.92568C23.0708 5.13024 21.9881 4.80613 20.3389 4.67407V2.8645C20.3389 2.38989 19.9541 2.00513 19.4795 2.00513C19.0049 2.00513 18.6201 2.38989 18.6201 2.8645V4.59803C17.8578 4.58325 17.0033 4.58325 16.042 4.58325H11.4587C10.4973 4.58325 9.64282 4.58325 8.88054 4.59803V2.8645Z" fill="#B1B5C3"/>
</svg>
