<svg width="25" height="20" viewBox="0 0 25 20" fill="none" xmlns="http://www.w3.org/2000/svg">
<path d="M20.4707 2.06517C18.9057 1.3399 17.2388 0.805496 15.4829 0.500122C15.2666 0.88184 15.0121 1.40352 14.8467 1.82341C12.989 1.54348 11.1441 1.54348 9.32455 1.82341C9.14642 1.40352 8.89194 0.88184 8.67563 0.500122C6.91973 0.805496 5.2529 1.3399 3.68785 2.06517C0.532317 6.82392 -0.320186 11.4682 0.0997033 16.0361C2.19915 17.6011 4.22226 18.5427 6.21991 19.1662C6.71615 18.4918 7.14876 17.7665 7.53048 17.0158C6.80521 16.7486 6.11812 16.4051 5.4692 16.0106C5.64734 15.8834 5.81275 15.7434 5.97816 15.6162C9.96074 17.4739 14.2742 17.4739 18.2058 15.6162C18.3713 15.7562 18.5367 15.8834 18.7148 16.0106C18.0659 16.4051 17.3661 16.7359 16.6535 17.0158C17.0352 17.7665 17.4679 18.4918 17.9641 19.1662C19.9618 18.5427 21.9976 17.6011 24.0843 16.0361C24.5805 10.7302 23.2318 6.13682 20.4962 2.06517H20.4707ZM8.06488 13.2368C6.86883 13.2368 5.88909 12.1298 5.88909 10.7684C5.88909 9.40691 6.84339 8.29993 8.06488 8.29993C9.28638 8.29993 10.2534 9.40691 10.2407 10.7684C10.2407 12.1171 9.28638 13.2368 8.06488 13.2368ZM16.0937 13.2368C14.8976 13.2368 13.9179 12.1298 13.9179 10.7684C13.9179 9.40691 14.8722 8.29993 16.0937 8.29993C17.3152 8.29993 18.2822 9.40691 18.2695 10.7684C18.2695 12.1171 17.3152 13.2368 16.0937 13.2368Z" fill="#77798F"/>
</svg>
