<svg width="42" height="37" viewBox="0 0 42 37" fill="none" xmlns="http://www.w3.org/2000/svg">
<g clip-path="url(#clip0_95_2293)">
<path opacity="0.4" d="M41.11 26.5992C41.11 32.334 36.5057 36.9795 30.7708 37H30.7503H10.3803C4.66598 37 0 32.3751 0 26.6403V26.6198C0 26.6198 0.012333 17.5221 0.028777 12.9466C0.0308325 12.0874 1.01747 11.6064 1.68962 12.1408C6.57349 16.0154 15.3073 23.0802 15.4162 23.1727C16.8757 24.3423 18.7256 25.0021 20.6167 25.0021C22.5077 25.0021 24.3577 24.3423 25.8171 23.1501C25.926 23.0781 34.4646 16.2251 39.4224 12.2868C40.0966 11.7503 41.0874 12.2313 41.0894 13.0884C41.11 17.629 41.11 26.5992 41.11 26.5992Z" fill="#29A5D6"/>
<path d="M40.0341 5.49641C38.254 2.14183 34.7514 0 30.8953 0H10.3814C6.52531 0 3.02273 2.14183 1.24267 5.49641C0.8439 6.24666 1.03301 7.18192 1.69694 7.71224L16.959 19.9198C18.0279 20.7832 19.3229 21.2128 20.6178 21.2128C20.6261 21.2128 20.6322 21.2128 20.6384 21.2128C20.6446 21.2128 20.6528 21.2128 20.6589 21.2128C21.9539 21.2128 23.2489 20.7832 24.3177 19.9198L39.5798 7.71224C40.2437 7.18192 40.4328 6.24666 40.0341 5.49641Z" fill="#29A5D6"/>
</g>
<defs>
<clipPath id="clip0_95_2293">
<rect width="42" height="37" fill="white"/>
</clipPath>
</defs>
</svg>
