<svg width="27" height="28" viewBox="0 0 27 28" fill="none" xmlns="http://www.w3.org/2000/svg">
<path d="M26.1524 14.0767C26.1516 7.08963 20.4875 1.42554 13.4996 1.42554C6.51162 1.42554 0.84668 7.09048 0.84668 14.0784C0.84668 20.3686 5.43668 25.5863 11.4492 26.5659L11.5218 26.576V17.7352H8.3088V14.0767H11.5218V11.2907C11.5058 11.1498 11.4973 10.9861 11.4973 10.8207C11.4973 8.35441 13.497 6.35472 15.9633 6.35472C16.0823 6.35472 16.2004 6.35979 16.3177 6.36822L16.3025 6.36738C17.3141 6.38172 18.2929 6.47116 19.248 6.63063L19.135 6.6146V9.72804H17.5386C17.466 9.71791 17.3825 9.71201 17.2981 9.71201C16.2881 9.71201 15.4689 10.5304 15.4689 11.5413C15.4689 11.5986 15.4714 11.6552 15.4765 11.7117L15.4756 11.7041V14.0767H18.9848L18.4237 17.7352H15.4756V26.576C21.5616 25.5855 26.1516 20.3669 26.1524 14.0767Z" fill="#77798F"/>
</svg>
