<svg width="61" height="60" viewBox="0 0 61 60" fill="none" xmlns="http://www.w3.org/2000/svg">
<path d="M49.6215 11.1025C54.6669 16.1478 57.7998 23.025 57.7998 30.4378C57.7998 37.9289 54.6669 44.6544 49.6215 49.6973C44.5761 54.7403 37.7748 57.7998 30.362 57.7998C22.871 57.7998 16.1454 54.7427 11.1025 49.6973C6.05951 44.652 3 37.9264 3 30.4378C3 23.025 6.05707 16.1454 11.1025 11.1025C16.1478 6.05951 22.8734 3 30.362 3C37.7748 3 44.5786 6.05707 49.6215 11.1025ZM33.4949 45.8772H33.649C33.8788 45.8772 34.1087 45.953 34.2604 46.1829C34.4144 46.337 34.5661 46.4886 34.8718 46.4886C34.9476 46.4886 35.0259 46.4128 35.0259 46.2588C35.0259 45.953 35.1017 45.6473 35.1017 45.5715C35.1775 45.3416 35.3316 45.3416 35.4832 45.3416C35.559 45.3416 35.559 45.3416 35.559 45.1876L35.4049 45.0335C35.3291 45.0335 35.2509 45.1093 35.2509 45.1876C35.175 45.2634 35.0968 45.3416 35.021 45.1876L34.5612 45.4933L34.0256 45.3392L33.1085 43.9623L33.4142 41.974C33.4142 41.8981 33.3384 41.7441 33.1085 41.6683C32.8786 41.5924 32.8786 41.4384 32.9544 41.3626C32.6487 41.2085 32.2672 41.0568 31.8074 41.0568C31.7316 41.0568 31.5017 41.1327 31.1201 41.2109C30.7386 41.2109 30.5087 41.2109 30.5087 41.0568C30.5087 40.827 30.7386 40.3696 30.8903 39.834C30.9661 39.6041 31.0443 39.2226 31.1201 39.0685C31.1201 38.9145 31.196 38.7628 31.196 38.7628L31.5775 37.8457L31.5017 37.6916L30.9661 37.6158C30.812 37.6158 30.2788 37.9215 29.8949 38.2272C29.5134 38.687 29.2076 39.0685 29.2076 39.3742L27.6791 39.6799C27.3734 39.6799 27.0677 39.6041 26.8378 39.2984C26.762 38.9169 26.5321 38.4571 26.2264 37.9998C25.9207 37.6183 25.8449 37.2343 25.8449 36.8528C25.8449 36.393 25.9207 35.7816 26.0748 35.4C26.2288 34.9403 26.2288 34.4071 25.9207 33.9473C25.9965 33.9473 26.2264 33.7932 26.0748 33.6416L26.4563 33.1818L26.5321 33.106L26.6079 33.1818C26.9136 32.9519 27.4492 32.8761 27.9066 32.9519C28.4422 33.0278 28.7479 32.7979 28.8995 32.4163L29.4351 32.9519C29.5892 33.0278 29.8949 32.4922 29.8949 32.3405L29.665 32.1865L31.0419 31.8807L31.1177 32.0348H31.7291L32.4946 32.4946C32.5704 32.4946 32.6487 32.4188 32.7245 32.3405C32.8786 32.1865 32.9544 32.1865 33.0302 32.2647L33.7174 33.0302C33.6416 33.1843 33.6416 33.3359 33.6416 33.49C33.7174 33.5658 33.7957 33.6441 33.7957 33.7199C33.7957 34.0256 34.4829 35.4025 34.8669 35.4025C35.0968 35.4025 35.1726 35.2484 35.0968 34.9427V34.3313C35.0968 33.9498 35.021 33.49 34.8669 33.0327C34.637 32.6511 34.4854 32.1155 34.3313 31.6557V31.5017C34.3313 31.2718 34.4854 31.0419 34.7911 30.8903C35.021 30.7362 35.1726 30.5845 35.1726 30.5845C35.4025 30.4305 35.6324 30.203 35.9381 30.049C36.168 29.8949 36.3979 29.5134 36.5495 29.2835L36.7794 28.7479V28.4422H37.0093C37.0093 28.4422 37.1634 28.3663 37.1634 28.2123C37.1634 28.2123 37.0875 28.1364 37.0093 28.1364C36.9335 28.0606 36.7036 27.9066 36.5495 27.7549L36.7036 27.6008C36.9335 27.371 37.0093 26.8354 36.8577 26.6079L37.4691 26.3022C37.315 26.6079 37.7748 26.6837 37.9289 26.6079L38.2346 25.9207C38.0805 25.5392 38.0047 25.9207 38.2346 25.4609C38.4645 25.3851 38.6943 25.3068 38.9218 25.1552C39.1517 25.0794 39.3033 25.0011 39.5332 25.0011C39.609 25.0011 39.6873 25.0769 39.6873 25.0769C39.8414 25.0769 39.9172 25.0011 39.9172 25.0011C39.9172 24.7712 39.8414 24.6196 39.7631 24.6196L40.1446 23.7783C40.4503 23.7783 40.756 23.6242 40.9101 23.3185L41.5215 23.2427C41.6756 23.2427 41.7514 23.1669 41.7514 23.0128V22.8587L42.8984 22.553L43.0525 22.1715L42.7468 21.7117C42.7468 21.7117 42.8226 21.6359 42.8226 21.5576C42.8226 21.4794 42.7468 21.4036 42.6685 21.3277C42.5927 21.3277 42.5145 21.2519 42.4386 21.2519C42.3628 21.1761 42.2846 21.0979 42.2087 21.0979H42.8202C42.8202 21.0979 43.1259 21.022 43.1259 20.7921C43.1259 20.4864 42.9718 20.4106 42.6661 20.4106C41.8248 20.4106 40.5261 20.7163 40.0664 21.6334L39.6066 21.8633L40.218 21.2519L40.2938 21.0979C40.2938 21.022 40.218 20.9438 40.0639 20.868H39.834C40.5995 20.868 41.0568 20.6381 41.3626 20.4082C41.5924 20.1783 41.8223 19.9484 42.3555 19.7968C42.8911 19.8726 43.4267 19.8726 43.9598 19.8726C44.4196 19.7968 44.877 19.7968 45.4126 19.7968C45.6424 19.6427 45.9482 19.337 46.0998 19.0313L46.8653 18.9555C47.0194 19.1095 47.5525 18.7256 47.5525 18.4957C47.5525 18.2658 47.4767 18.19 47.2468 18.1142C47.0169 18.0383 46.787 17.8843 46.787 17.6544V17.4245C46.8628 17.3487 46.787 17.2704 46.7112 17.2704C46.4055 17.2704 45.64 17.6519 45.4126 17.806C45.2585 17.9601 45.1827 17.7302 45.1827 17.5761L45.2585 17.6519L45.5642 17.4978L46.3297 17.1921L46.4055 17.1163C46.4055 16.8106 45.9457 16.7348 45.7941 16.7348C45.7183 16.7348 45.5642 16.8106 45.4126 16.8889C45.2585 16.8889 45.1068 16.8889 45.1068 16.7348L45.1827 16.5807C44.6471 16.1992 44.1897 15.4337 44.1897 15.2038V14.8981C44.2655 14.8223 44.1897 14.8223 44.0357 14.8223H43.8058C43.7299 14.8981 43.6517 14.8223 43.6517 14.6682C43.6517 14.5141 43.346 13.6753 42.9645 13.6753L42.7346 13.9052C42.7346 14.0593 42.6588 14.1351 42.5047 14.2109C42.3506 14.2867 42.2748 14.365 42.2748 14.4408H42.199L41.4335 14.9006C41.4335 14.7465 41.3577 14.7465 41.2794 14.8247C41.2036 14.8247 41.2036 14.9006 41.0495 14.9006H40.8954C41.277 14.9006 41.2011 14.365 40.8954 14.365L40.284 14.4408C40.1299 14.4408 40.1299 14.4408 40.284 14.2867C40.3598 14.1326 40.5139 13.981 40.3598 13.8269C40.3598 13.6728 40.284 13.6728 40.2058 13.7511L40.3598 13.5212C40.5139 13.4454 40.284 13.1397 40.1299 12.9856L39.4427 12.9098L38.9829 12.45C38.9071 12.5258 38.8289 12.45 38.6772 12.3742C38.6014 12.2984 38.4473 12.1443 38.3715 12.1443L37.8359 12.3742L36.459 12.0685C36.3049 12.0685 36.0775 12.1443 36.0775 12.3742C36.0775 12.45 36.0775 12.5283 36.1533 12.5283C36.3074 12.6041 36.3074 12.6824 36.3074 12.7582C36.3074 12.834 36.3832 13.1397 36.4615 13.5237C36.4615 13.9052 36.4615 14.0593 36.2316 13.9834L35.9259 14.4432C35.9259 14.5973 36.0799 14.6731 36.1558 14.6731C36.3856 14.8272 36.6155 15.0546 36.7672 15.2845C36.9212 15.4386 36.9212 15.666 36.843 15.8959L35.3903 17.043V17.1188C35.3903 17.3487 35.3903 17.5003 35.4661 17.6544C35.6202 17.8084 35.6202 18.0359 35.7718 18.2658C36.1533 18.4199 36.1533 18.5715 35.8476 18.7256C35.6935 18.7256 35.5419 18.8014 35.3878 18.8796L35.2337 19.0337C35.2337 19.1095 35.1579 19.1095 35.0797 19.1095H34.6981C34.6981 19.1095 34.6981 19.0337 34.774 19.0337C34.774 19.0337 34.8498 18.9579 34.8498 18.8796L34.1625 18.4981L33.8568 17.9625C33.9327 17.7326 33.9327 17.581 33.8568 17.5027C33.781 17.4245 33.781 17.2728 33.781 17.1212C33.781 16.9696 33.6269 16.5856 33.3212 16.5856C32.9397 16.5856 32.634 16.6614 32.25 16.7397C32.4041 16.6639 32.096 16.2799 32.0201 16.2799C31.6386 16.2799 31.1788 16.1258 30.6432 15.8201C30.1076 15.5144 29.7261 15.3603 29.4204 15.3603C29.1905 15.3603 28.7332 15.4362 28.4275 15.5902C28.5816 15.5144 28.5816 15.4362 28.6574 15.2087L28.1976 14.4432L28.1218 14.3674C27.9677 14.3674 27.8161 14.4432 27.662 14.5973C27.5079 14.6731 27.2805 14.5973 27.2805 14.2916C27.2805 14.2158 27.3563 14.1375 27.3563 14.1375C27.4321 14.0617 27.4321 14.0617 27.3563 13.9834C27.3563 13.7535 27.4321 13.5237 27.662 13.2962C27.8161 13.1421 27.8919 12.8364 27.9677 12.609C28.1218 12.5332 28.1218 12.4549 28.1218 12.3791C28.1218 12.225 28.1976 12.225 28.2759 12.225C28.4299 12.225 28.6574 12.1492 28.8114 12.0709C28.9655 11.9169 29.1172 11.841 29.347 11.841L29.4229 11.6112C29.4229 11.5353 29.193 11.4571 28.7356 11.3813C28.2 11.3054 27.9701 11.3054 27.9701 11.1514L28.046 11.0756C28.5057 11.2296 28.8873 11.3054 29.1172 11.3054C29.5769 11.3813 29.8044 11.2296 30.2642 10.9997C30.4182 10.9239 30.8756 10.7698 31.2571 10.54C31.2571 10.4641 31.1813 10.4641 30.9514 10.3859H31.2571L31.7927 10.0802V9.77447L31.6386 9.62039L32.4041 9.46631C32.3283 9.31224 32.4799 9.23642 32.5582 9.23642C32.7123 9.23642 32.8639 9.31224 33.018 9.46631C33.1721 9.62039 33.2479 9.62039 33.3237 9.62039L34.0109 9.3905C34.0109 9.31468 34.0867 9.31468 34.2408 9.31468C34.3949 9.23887 34.4707 9.16061 34.3949 9.08479L33.8593 8.54919C33.7052 8.54919 33.6294 8.3193 33.7835 8.3193C34.0134 8.3193 34.165 8.24348 34.0134 8.01359C33.8593 7.93778 33.6318 7.7837 33.4019 7.70789C33.1721 7.55381 32.9422 7.47799 32.7147 7.47799C32.5606 7.47799 32.2549 7.55381 32.2549 7.7837C32.2549 7.93778 32.3307 7.93778 32.409 7.93778C32.5631 7.93778 32.6389 8.01359 32.6389 8.09185C32.793 8.16767 32.7147 8.24593 32.5631 8.24593H32.409C32.2549 8.24593 32.0275 8.40001 31.8734 8.70571C31.7193 8.93561 31.4919 9.1655 31.262 9.24131C31.1862 9.24131 31.1862 9.24131 31.1862 9.1655C31.262 9.08968 31.1862 9.08968 31.1862 9.01142C31.1104 8.93561 31.0321 8.85735 30.9563 8.85735C30.8022 8.78153 30.6506 8.78153 30.6506 8.70327C30.6506 8.54919 30.8047 8.47338 30.9563 8.24349C31.0321 8.01359 30.8022 7.93778 30.4207 7.93778C30.2666 7.93778 30.115 8.01359 30.0392 8.16767C29.9634 8.24349 29.8851 8.39756 29.8093 8.54919L29.0438 7.70789L28.4324 7.63207C28.4324 7.478 28.5082 7.32636 28.5864 7.17229C28.7405 6.86658 28.1267 6.48506 27.8992 6.25517C27.8234 6.25517 27.6693 6.17935 27.5177 6.17935C27.4419 6.17935 26.9821 6.56087 26.6764 6.71495C26.5223 6.79077 26.4465 6.86903 26.4465 6.94484C26.4465 7.09892 26.6006 7.09892 26.828 7.09892H26.7522C26.5981 7.09892 26.5223 7.17473 26.5223 7.40462C26.5223 7.48044 27.1337 7.63452 27.2878 7.63452C27.4419 7.63452 27.5935 7.63452 27.5935 7.71033C27.6693 7.78615 27.6693 7.78615 27.8234 7.78615L28.0533 7.71033V7.86441L27.9775 8.01849L28.0533 8.24838L27.2878 8.6299L27.212 8.70571C27.1362 8.70571 27.0579 8.70571 27.0579 8.78153C27.0579 8.85734 27.0579 9.01142 27.212 9.16305C27.2878 9.31713 27.212 9.39294 26.8305 9.39294L26.6006 9.23887C26.6006 9.08479 26.4465 8.93316 26.065 8.77908C25.3777 8.54919 24.1549 8.47338 23.0837 8.47338C22.5481 8.39756 22.1666 8.39756 21.8609 8.39756L20.7139 8.77908L21.0196 9.3905C20.9438 9.3905 20.7897 9.46631 20.7897 9.46631C20.484 9.23642 20.0242 8.77908 19.8726 8.77908L19.337 8.70327C17.6544 8.77908 15.6685 10.3859 13.7584 12.2959C11.8484 14.206 10.1658 16.3459 9.32447 17.647H9.47854C9.63262 17.647 9.70843 17.5712 9.93832 17.493C10.0924 17.4171 10.1682 17.5688 10.1682 17.7987C10.1682 17.9527 10.1682 18.0286 10.0924 18.1802C10.0166 18.3318 10.1682 18.4101 10.4739 18.4101C10.5497 18.4101 10.628 18.3343 10.628 18.1802C10.7038 18.0261 10.7038 18.0261 10.7038 18.1802L10.8579 18.7158V18.7916C10.8579 18.8674 10.7821 18.9457 10.7038 19.0215C10.4739 19.0973 10.7038 19.3272 10.9337 19.3272H11.3152L11.4693 19.2514L11.5451 19.1756C11.5451 19.4813 11.8508 19.5571 12.0807 19.5571H12.1565C12.1565 19.5571 12.0807 19.7112 12.0025 19.787C11.8484 19.787 11.8484 19.8628 12.0025 19.9411L12.7679 20.0951V20.1709L13.2277 21.1639C13.2277 21.318 13.0737 21.6995 12.922 21.6995C12.7704 21.6995 12.7679 21.6237 12.7679 21.5454C12.8438 21.5454 12.8438 21.4696 12.8438 21.3155C12.8438 21.2397 12.7679 21.1614 12.7679 21.0856C12.6921 21.0098 12.5381 21.0098 12.2324 21.0098C12.1565 21.0098 11.9266 21.0098 12.0783 21.2397L12.4598 22.081L12.6139 22.2351C12.1541 22.2351 12.0783 23.7636 12.0783 24.2234L12.1541 24.8348L12.2299 25.0647V25.1405L12.1541 25.8277L13.0712 27.3563H13.3011C13.3011 27.4321 13.3011 27.5104 13.2253 27.5862C13.1495 27.662 13.1495 27.7403 13.1495 27.8919L13.4552 28.1218C13.4552 28.5816 13.6093 28.6574 13.9908 29.0389C13.9908 29.2688 14.2965 29.5745 14.7563 29.8802C15.2919 30.1101 15.5976 30.2617 15.7492 30.34C16.0549 31.4112 16.5905 32.5557 17.3536 33.2454L17.4294 33.7052L17.2753 33.8593C17.1212 33.8593 17.1212 33.9351 17.1995 34.0134L17.8109 34.3191C17.965 34.165 18.0408 34.3191 18.1924 34.549C18.3465 34.8547 18.4223 35.0087 18.4981 35.0846V35.3144L18.8796 35.85L19.0337 36.0041L19.1878 35.6226C19.0337 35.2411 18.5006 34.3998 18.0408 33.7125C17.8109 33.331 17.581 32.9471 17.3536 32.6413C17.1995 32.4115 17.1237 32.2598 17.1237 32.1816C17.1237 32.1033 17.0478 31.2644 16.9696 31.1104C17.0454 31.1862 17.2753 31.2644 17.4294 31.3403C17.6593 31.4161 17.8892 31.4943 18.0408 31.5701C18.1166 32.1816 18.3465 32.6413 18.728 33.0229C19.0337 33.3286 19.3394 33.7101 19.5693 34.1699C19.4152 34.324 19.7234 34.324 19.875 34.324C19.9508 34.478 19.9508 34.5539 19.9508 34.8596C20.6381 35.5468 22.015 37.1536 22.015 37.8408V37.9166L21.8609 38.3764C22.1666 39.0636 22.8538 39.5992 23.5435 39.8291H23.6976C24.0791 40.059 24.6147 40.2889 25.1503 40.5164C25.6101 40.8221 26.0674 41.052 26.5272 41.2036L27.2927 40.7438C27.6742 40.8196 28.134 41.2036 28.6696 41.6609C29.2052 42.1183 29.8924 42.6539 30.8096 42.8079C31.1153 42.578 31.2693 42.6539 31.2693 42.962V43.1161L32.1106 44.109L32.2647 44.5688C32.7245 44.8745 33.2577 45.3343 33.4875 45.8675L33.4949 45.8772ZM23.6364 7.43397L23.5606 7.2799C23.4065 7.20408 23.025 7.05 22.8734 7.05C22.7976 7.05 22.6435 7.12582 22.3378 7.20408C21.8022 7.50979 20.9609 7.73968 20.3495 8.04539C20.0438 8.19946 19.8139 8.27528 19.6623 8.27528C19.968 8.27528 20.2737 8.19946 20.5794 8.04539C20.8093 7.89131 21.115 7.8155 21.4207 7.8155L21.6506 7.96957C21.8046 8.04539 21.8805 8.04539 22.0321 8.04539C22.1079 8.04539 22.1862 8.04539 22.3378 8.19946C22.4919 8.12365 22.6435 8.12365 22.8734 8.27528L23.1033 8.1212V7.8155L23.0275 7.66142L23.1815 7.73723C23.3356 7.73723 23.4873 7.66142 23.6413 7.43153L23.6364 7.43397ZM35.175 52.2188L35.2509 52.6786C35.2509 52.8327 35.175 52.8327 35.0968 52.9843C34.8669 53.1384 34.4854 53.3658 34.4854 53.8256C34.4854 53.9014 34.5612 53.9797 34.5612 54.1313C34.637 54.2071 34.7153 54.2854 34.7153 54.437C34.7153 54.5128 34.6394 54.5911 34.6394 54.6669C39.9123 53.7498 44.652 51.2283 48.3204 47.33H48.2446C48.0906 47.4058 47.8631 47.4058 47.7848 47.33L47.555 47.4058L47.1734 47.33H46.9435C46.7895 47.1001 46.6378 46.9484 46.4079 46.7944L46.3321 46.7185C46.2563 46.7185 46.1781 46.7185 46.1781 46.8726C46.1781 46.1854 45.6425 45.574 45.031 45.574C45.031 45.6498 44.9552 45.6498 44.9552 45.6498H44.8011L44.6471 45.574H44.877L45.031 45.1142L44.6495 44.8843L44.5737 44.9601C44.268 44.8843 44.0381 44.7302 43.8865 44.4245L43.6566 44.3487V44.4245L43.5025 44.5003C43.1968 44.5761 42.9669 44.6544 42.8153 44.7302C42.5096 44.6544 42.2797 44.5003 42.2039 44.4245L41.2867 44.5003C41.2867 44.1946 41.1327 43.8131 40.7511 43.8131C40.2914 43.8131 39.6799 43.8131 39.5283 44.3487C39.5283 44.5028 39.6041 44.7302 39.6824 44.8085V45.1142L39.6066 45.2683L39.5308 45.3441H39.4549L39.2251 44.8085L39.4549 44.5028C39.3791 44.3487 39.3791 44.2729 39.3791 44.1213C39.3791 43.9696 39.3033 43.8914 39.3033 43.7397L39.2275 43.6639H38.9976L38.5378 43.9696H38.2321L38.1563 44.1237C38.0805 44.1237 38.0805 44.1995 38.0805 44.2778C38.0805 44.2778 38.0047 44.2778 38.0047 44.3536L37.9289 44.2778H37.6231C37.4691 44.4319 37.3933 44.6593 37.3174 44.8892L37.4715 45.0433L37.09 45.1973L37.0142 45.3514L36.7843 45.5055V45.5813H36.7085V45.9628H36.6327C36.5568 45.6571 36.327 45.3514 35.8672 45.1215H35.6373V45.2756C35.6373 45.4297 35.7914 45.5055 35.943 45.5813C36.0971 45.7354 36.1729 45.887 36.2487 45.9628C36.1729 45.887 36.0188 45.9628 36.0188 46.0386V46.1927L36.4786 46.88V48.1786L36.6327 48.4843C36.4786 48.8658 36.327 49.2498 36.0971 49.4772V49.4014L35.943 49.4772L35.8672 49.5531L35.7914 49.8588L35.8672 49.9346V50.0104L35.7131 49.8563L35.6373 50.3161L35.2558 50.4702C35.1017 50.546 35.0259 50.6243 35.1017 50.8517C35.1017 51.0058 35.0259 51.0816 34.8718 51.1574L34.9476 51.3115L34.7935 51.5414C34.7935 51.6172 34.7935 51.6954 34.7177 51.6954V52.0012L34.7935 52.5368L34.9476 52.6126L35.1017 52.5368L35.175 52.2188Z" fill="white"/>
</svg>
