<svg width="27" height="28" viewBox="0 0 27 28" fill="none" xmlns="http://www.w3.org/2000/svg">
<path d="M21.7725 7.24667V7.24751C21.7725 8.0862 21.0925 8.76542 20.2546 8.76542C19.4168 8.76542 18.7367 8.08535 18.7367 7.24751C18.7367 6.40882 19.4168 5.72961 20.2546 5.72961C21.0925 5.73045 21.7717 6.40882 21.7725 7.24667ZM13.4996 18.2179C11.17 18.2179 9.28165 16.3296 9.28165 14C9.28165 11.6704 11.17 9.78214 13.4996 9.78214C15.8291 9.78214 17.7175 11.6704 17.7175 14C17.7175 16.3288 15.83 18.2171 13.5012 18.2171H13.5004L13.4996 18.2179ZM13.4996 7.50317C9.91109 7.50317 7.00268 10.4124 7.00268 14C7.00268 17.5877 9.91193 20.4969 13.4996 20.4969C17.088 20.4969 19.9964 17.5877 19.9964 14C19.9964 14 19.9964 14 19.9964 13.9992C19.9964 10.4116 17.088 7.50232 13.4996 7.50232C13.4996 7.50232 13.4996 7.50232 13.4987 7.50232L13.4996 7.50317ZM13.4996 3.62529C16.8771 3.62529 17.2796 3.64217 18.6135 3.70039C19.4598 3.71051 20.2647 3.87082 21.0098 4.15432L20.9617 4.13829C22.0704 4.57029 22.931 5.43092 23.3537 6.51092L23.3638 6.53961C23.6305 7.23654 23.7891 8.04232 23.7992 8.88354V8.88776C23.8591 10.2226 23.8726 10.6234 23.8726 14.0017C23.8726 17.3801 23.8566 17.7817 23.795 19.1157C23.779 19.9628 23.6178 20.7678 23.3351 21.5128L23.3512 21.4639C23.1335 22.0342 22.8112 22.5202 22.4036 22.9202L22.4028 22.921C22.0037 23.3294 21.5177 23.6517 20.9752 23.8567L20.9482 23.866C20.2487 24.1326 19.4404 24.2913 18.5958 24.3014H18.5916C17.2483 24.3613 16.8526 24.3748 13.4683 24.3748C10.0824 24.3748 9.68749 24.3588 8.34509 24.2972C7.49459 24.2811 6.68627 24.12 5.93787 23.8373L5.98765 23.8534C5.41727 23.639 4.93127 23.3159 4.53471 22.9067L4.53387 22.9058C4.12127 22.5093 3.79727 22.0224 3.59393 21.4774L3.58549 21.4512C3.31971 20.7526 3.15855 19.9451 3.14252 19.1014V19.0946C3.09527 17.7657 3.0784 17.3556 3.0784 13.9874C3.0784 10.6174 3.09527 10.2065 3.14252 8.86161C3.15855 8.01195 3.31887 7.20448 3.60152 6.45692L3.58549 6.5067C3.7939 5.93379 4.11874 5.44611 4.53302 5.05207L4.53471 5.05039C4.92959 4.63526 5.41643 4.31211 5.96234 4.11214L5.98849 4.1037C6.6829 3.83539 7.4853 3.67423 8.32399 3.65989H8.3299C9.67399 3.61264 10.0697 3.59661 13.4531 3.59661L13.4996 3.62529ZM13.4996 1.34717C10.0621 1.34717 9.63349 1.3632 8.28349 1.42311C7.17396 1.44673 6.1218 1.66104 5.14812 2.03314L5.21224 2.01204C4.33474 2.34701 3.58718 2.84398 2.97124 3.47004L2.9704 3.47089C2.3418 4.08682 1.84568 4.83523 1.52505 5.67054L1.51071 5.71273C1.15971 6.62229 0.945398 7.67529 0.922617 8.77386V8.78398C0.859336 10.134 0.84668 10.5626 0.84668 14C0.84668 17.4375 0.862711 17.8661 0.922617 19.2161C0.946242 20.3256 1.16055 21.3778 1.53265 22.3515L1.51155 22.2874C2.18318 23.9926 3.50702 25.3164 5.16837 25.9729L5.21224 25.988C6.1218 26.3382 7.1748 26.5525 8.27337 26.5761H8.28349C9.63349 26.6394 10.0621 26.6521 13.4996 26.6521C16.937 26.6521 17.3656 26.636 18.7156 26.5761C19.8251 26.5517 20.8773 26.3382 21.851 25.9661L21.7869 25.988C23.4921 25.3164 24.8159 23.9926 25.4724 22.3312L25.4876 22.2874C25.8386 21.3778 26.052 20.3248 26.0756 19.2262V19.2161C26.1389 17.8661 26.1516 17.4375 26.1516 14C26.1516 10.5626 26.1356 10.134 26.0756 8.78398C26.0512 7.67445 25.8377 6.62229 25.4656 5.64861L25.4876 5.71273C25.1517 4.83523 24.6556 4.08767 24.0287 3.47173L24.0279 3.47089C23.4119 2.84229 22.6635 2.34617 21.8282 2.02554L21.786 2.0112C20.8765 1.6602 19.8235 1.44589 18.7249 1.42311H18.7148C17.3648 1.35982 16.9361 1.34717 13.4987 1.34717H13.4996Z" fill="#77798F"/>
</svg>
