<svg width="28" height="27" viewBox="0 0 28 27" fill="none" xmlns="http://www.w3.org/2000/svg">
<g clip-path="url(#clip0_95_3862)">
<path d="M14 2.43105C17.607 2.43105 18.0342 2.44687 19.4527 2.51016C20.7711 2.56816 21.483 2.78965 21.9576 2.97422C22.5852 3.2168 23.0387 3.51211 23.508 3.98145C23.9826 4.45605 24.2727 4.9043 24.5152 5.53184C24.6998 6.00645 24.9213 6.72363 24.9793 8.03672C25.0426 9.46055 25.0584 9.8877 25.0584 13.4895C25.0584 17.0965 25.0426 17.5236 24.9793 18.9422C24.9213 20.2605 24.6998 20.9725 24.5152 21.4471C24.2727 22.0746 23.9773 22.5281 23.508 22.9975C23.0334 23.4721 22.5852 23.7621 21.9576 24.0047C21.483 24.1893 20.7658 24.4107 19.4527 24.4688C18.0289 24.532 17.6018 24.5479 14 24.5479C10.393 24.5479 9.96582 24.532 8.54727 24.4688C7.22891 24.4107 6.51699 24.1893 6.04238 24.0047C5.41484 23.7621 4.96133 23.4668 4.49199 22.9975C4.01738 22.5229 3.72734 22.0746 3.48477 21.4471C3.3002 20.9725 3.07871 20.2553 3.0207 18.9422C2.95742 17.5184 2.9416 17.0912 2.9416 13.4895C2.9416 9.88242 2.95742 9.45527 3.0207 8.03672C3.07871 6.71836 3.3002 6.00645 3.48477 5.53184C3.72734 4.9043 4.02266 4.45078 4.49199 3.98145C4.9666 3.50684 5.41484 3.2168 6.04238 2.97422C6.51699 2.78965 7.23418 2.56816 8.54727 2.51016C9.96582 2.44687 10.393 2.43105 14 2.43105ZM14 0C10.335 0 9.87617 0.0158203 8.43652 0.0791016C7.00215 0.142383 6.01602 0.374414 5.16172 0.706641C4.27051 1.05469 3.51641 1.51348 2.76758 2.26758C2.01348 3.01641 1.55469 3.77051 1.20664 4.65645C0.874414 5.51602 0.642383 6.49687 0.579102 7.93125C0.51582 9.37617 0.5 9.83496 0.5 13.5C0.5 17.165 0.51582 17.6238 0.579102 19.0635C0.642383 20.4979 0.874414 21.484 1.20664 22.3383C1.55469 23.2295 2.01348 23.9836 2.76758 24.7324C3.51641 25.4813 4.27051 25.9453 5.15645 26.2881C6.01602 26.6203 6.99688 26.8523 8.43125 26.9156C9.8709 26.9789 10.3297 26.9947 13.9947 26.9947C17.6598 26.9947 18.1186 26.9789 19.5582 26.9156C20.9926 26.8523 21.9787 26.6203 22.833 26.2881C23.7189 25.9453 24.473 25.4813 25.2219 24.7324C25.9707 23.9836 26.4348 23.2295 26.7775 22.3436C27.1098 21.484 27.3418 20.5031 27.4051 19.0688C27.4684 17.6291 27.4842 17.1703 27.4842 13.5053C27.4842 9.84023 27.4684 9.38145 27.4051 7.9418C27.3418 6.50742 27.1098 5.52129 26.7775 4.66699C26.4453 3.77051 25.9865 3.01641 25.2324 2.26758C24.4836 1.51875 23.7295 1.05469 22.8436 0.711914C21.984 0.379687 21.0031 0.147656 19.5688 0.084375C18.1238 0.0158203 17.665 0 14 0Z" fill="white"/>
<path d="M14 6.56543C10.1715 6.56543 7.06543 9.67148 7.06543 13.5C7.06543 17.3285 10.1715 20.4346 14 20.4346C17.8285 20.4346 20.9346 17.3285 20.9346 13.5C20.9346 9.67148 17.8285 6.56543 14 6.56543ZM14 17.9982C11.5162 17.9982 9.50176 15.9838 9.50176 13.5C9.50176 11.0162 11.5162 9.00176 14 9.00176C16.4838 9.00176 18.4982 11.0162 18.4982 13.5C18.4982 15.9838 16.4838 17.9982 14 17.9982Z" fill="white"/>
<path d="M22.8277 6.29131C22.8277 7.1878 22.1 7.91026 21.2088 7.91026C20.3123 7.91026 19.5898 7.18252 19.5898 6.29131C19.5898 5.39483 20.3176 4.67236 21.2088 4.67236C22.1 4.67236 22.8277 5.4001 22.8277 6.29131Z" fill="white"/>
</g>
<defs>
<clipPath id="clip0_95_3862">
<rect width="27" height="27" fill="white" transform="translate(0.5)"/>
</clipPath>
</defs>
</svg>
