<svg width="28" height="27" viewBox="0 0 28 27" fill="none" xmlns="http://www.w3.org/2000/svg">
<g clip-path="url(#clip0_95_3863)">
<path d="M25.5014 0H2.49336C1.39121 0 0.5 0.870117 0.5 1.9459V25.0488C0.5 26.1246 1.39121 27 2.49336 27H25.5014C26.6035 27 27.5 26.1246 27.5 25.0541V1.9459C27.5 0.870117 26.6035 0 25.5014 0ZM8.51035 23.008H4.50254V10.1197H8.51035V23.008ZM6.50645 8.36367C5.21973 8.36367 4.18086 7.3248 4.18086 6.04336C4.18086 4.76191 5.21973 3.72305 6.50645 3.72305C7.78789 3.72305 8.82676 4.76191 8.82676 6.04336C8.82676 7.31953 7.78789 8.36367 6.50645 8.36367ZM23.508 23.008H19.5055V16.7432C19.5055 15.2508 19.4791 13.326 17.4225 13.326C15.3395 13.326 15.023 14.9555 15.023 16.6377V23.008H11.0258V10.1197H14.8648V11.8811H14.9176C15.4502 10.8686 16.758 9.79805 18.7039 9.79805C22.7592 9.79805 23.508 12.4664 23.508 15.9363V23.008Z" fill="white"/>
</g>
<defs>
<clipPath id="clip0_95_3863">
<rect width="27" height="27" fill="white" transform="translate(0.5)"/>
</clipPath>
</defs>
</svg>
