<?xml version="1.0" standalone="no"?>
<!DOCTYPE svg PUBLIC "-//W3C//DTD SVG 20010904//EN"
 "http://www.w3.org/TR/2001/REC-SVG-20010904/DTD/svg10.dtd">
<svg version="1.0" xmlns="http://www.w3.org/2000/svg"
 width="50.000000pt" height="50.000000pt" viewBox="0 0 50.000000 50.000000"
 preserveAspectRatio="xMidYMid meet">

<g transform="translate(0.000000,50.000000) scale(0.100000,-0.100000)"
fill="#000000" stroke="none">
<path d="M139 403 c-102 -63 -62 -233 56 -233 39 0 30 17 -17 32 -111 35 -90
188 26 188 47 0 87 -35 95 -85 8 -50 26 -46 25 7 -1 34 -7 47 -37 75 -30 27
-45 33 -79 33 -24 0 -55 -8 -69 -17z"/>
<path d="M178 355 c-26 -35 -22 -55 12 -68 17 -6 30 -15 30 -20 0 -5 -13 -6
-30 -2 -35 8 -39 -6 -10 -35 25 -25 28 -25 51 2 30 38 19 78 -23 78 -10 0 -18
5 -18 10 0 13 23 13 37 -1 20 -20 25 9 6 36 -23 31 -33 31 -55 0z"/>
<path d="M252 248 c-17 -17 -17 -181 1 -176 8 3 13 31 15 81 2 59 6 77 17 77
11 0 15 -13 15 -50 l0 -50 38 0 c42 0 62 -14 62 -43 0 -10 5 -17 13 -15 39 14
-6 88 -54 88 -26 0 -29 3 -29 33 0 52 -48 85 -78 55z"/>
</g>
</svg>
