<svg width="35" height="44" viewBox="0 0 35 44" fill="none" xmlns="http://www.w3.org/2000/svg">
<path d="M17.4483 0C7.85172 0 0 7.92 0 17.6C0 29.48 15.2672 42.9 15.9216 43.56C16.3578 43.78 17.0121 44 17.4483 44C17.8845 44 18.5388 43.78 18.975 43.56C19.6293 42.9 34.8966 29.48 34.8966 17.6C34.8966 7.92 27.0448 0 17.4483 0ZM17.4483 38.94C12.8681 34.54 4.36207 25.08 4.36207 17.6C4.36207 10.34 10.2509 4.4 17.4483 4.4C24.6457 4.4 30.5345 10.34 30.5345 17.6C30.5345 24.86 22.0284 34.54 17.4483 38.94ZM17.4483 8.8C12.65 8.8 8.72414 12.76 8.72414 17.6C8.72414 22.44 12.65 26.4 17.4483 26.4C22.2466 26.4 26.1724 22.44 26.1724 17.6C26.1724 12.76 22.2466 8.8 17.4483 8.8ZM17.4483 22C15.0491 22 13.0862 20.02 13.0862 17.6C13.0862 15.18 15.0491 13.2 17.4483 13.2C19.8474 13.2 21.8103 15.18 21.8103 17.6C21.8103 20.02 19.8474 22 17.4483 22Z" fill="white"/>
</svg>
