<svg width="51" height="51" viewBox="0 0 51 51" fill="none" xmlns="http://www.w3.org/2000/svg">
<path d="M0.799884 25.2023C0.784259 23.0441 3.07558 21.8089 4.84416 22.763L5.08182 22.9068L11.7764 27.4175C14.2082 29.056 12.7207 32.7753 9.94236 32.4343L9.65045 32.3843L6.99205 31.801C9.14372 37.742 14.0679 42.567 20.6286 44.325C30.2062 46.8913 40.0282 42.0505 44.0022 33.313C44.574 32.0563 46.0562 31.5008 47.313 32.0723C48.57 32.644 49.1252 34.1263 48.5537 35.383C43.5842 46.309 31.312 52.364 19.3345 49.1548C9.32492 46.4725 2.3749 38.0835 1.03537 28.4355C0.887621 27.3713 0.808021 26.2915 0.799884 25.2023ZM25.8 10C27.1807 10 28.3 11.1193 28.3 12.5V15H30.8C34.2517 15 37.05 17.7982 37.05 21.25C37.05 22.657 36.585 23.9555 35.8005 25C36.585 26.0445 37.05 27.343 37.05 28.75C37.05 32.2018 34.2517 35 30.8 35H28.3V37.5C28.3 38.8808 27.1807 40 25.8 40C24.4192 40 23.3 38.8808 23.3 37.5V35H18.55C17.0312 35 15.8 33.7688 15.8 32.25V17.75C15.8 16.2312 17.0312 15 18.55 15H23.3V12.5C23.3 11.1193 24.4192 10 25.8 10ZM30.8 27.5H20.8V30H30.8C31.4902 30 32.05 29.4403 32.05 28.75C32.05 28.0598 31.4902 27.5 30.8 27.5ZM3.05687 14.6298C8.02627 3.70393 20.2987 -2.35114 32.276 0.858184C42.2857 3.54026 49.2357 11.9293 50.5752 21.5773C50.723 22.6415 50.8025 23.7213 50.8106 24.8105C50.8263 26.9687 48.535 28.2039 46.7664 27.2498L46.5287 27.106L39.8337 22.5953C37.4021 20.9568 38.8895 17.2376 41.6676 17.5784L41.9595 17.6284L44.6182 18.2114C42.4665 12.2706 37.5425 7.44571 30.982 5.68783C21.4045 3.12151 11.5823 7.96238 7.60822 16.6999C7.0366 17.9567 5.55432 18.5121 4.29752 17.9405C3.0407 17.3689 2.48525 15.8866 3.05687 14.6298ZM30.8 20H20.8V22.5H30.8C31.4902 22.5 32.05 21.9403 32.05 21.25C32.05 20.5598 31.4902 20 30.8 20Z" fill="white"/>
</svg>
