<svg width="69" height="69" viewBox="0 0 69 69" fill="none" xmlns="http://www.w3.org/2000/svg">
<g clip-path="url(#clip0_68_12)">
<path d="M34.5 69C53.5538 69 69 53.5538 69 34.5C69 15.4462 53.5538 0 34.5 0C15.4462 0 0 15.4462 0 34.5C0 53.5538 15.4462 69 34.5 69Z" fill="#51FFFD" fill-opacity="0.4"/>
<path d="M19.5575 56.228C19.0573 55.9029 18.9166 55.2356 19.2406 54.7359L24.2317 47.0504C24.5563 46.5507 25.2236 46.409 25.7233 46.7329C26.2225 47.058 26.3643 47.7253 26.0403 48.2251L21.0491 55.911C20.7246 56.4102 20.0572 56.552 19.5575 56.228Z" fill="#263740"/>
<path d="M49.4428 56.228C49.943 55.9029 50.0837 55.2356 49.7597 54.7359L44.7686 47.0504C44.444 46.5507 43.7767 46.409 43.277 46.7329C42.7778 47.058 42.636 47.7253 42.96 48.2251L47.9512 55.911C48.2757 56.4102 48.9431 56.552 49.4428 56.228Z" fill="#263740"/>
<path d="M33.9609 26.9531C33.3658 26.9531 32.8828 26.4701 32.8828 25.875V16.7109C32.8828 16.1158 33.3658 15.6328 33.9609 15.6328C34.5561 15.6328 35.0391 16.1158 35.0391 16.7109V25.875C35.0391 26.4707 34.5561 26.9531 33.9609 26.9531Z" fill="#242424"/>
<path d="M57.6797 19.9453C57.6797 21.1361 56.7142 22.1016 55.5234 22.1016H12.9375C11.7467 22.1016 10.7812 21.1361 10.7812 19.9453C10.7812 18.7545 11.7467 17.7891 12.9375 17.7891H55.5234C56.7142 17.7891 57.6797 18.7545 57.6797 19.9453Z" fill="#2D4452"/>
<path d="M55.5234 22.1016V46.8984C55.5234 48.0844 54.5531 49.0547 53.3672 49.0547H15.0938C13.9078 49.0547 12.9375 48.0844 12.9375 46.8984V22.1016H55.5234Z" fill="#E6E6E6"/>
<path d="M31.2658 32.8827C31.1278 32.8827 30.9898 32.8299 30.8846 32.7248C30.6739 32.514 30.6739 32.1733 30.8846 31.9625L33.58 29.2672C33.7907 29.0564 34.1314 29.0564 34.3422 29.2672C34.553 29.478 34.553 29.8187 34.3422 30.0294L31.6469 32.7248C31.5418 32.8299 31.4038 32.8827 31.2658 32.8827Z" fill="#222222"/>
<path d="M33.9611 32.8827C33.8231 32.8827 33.6851 32.8299 33.58 32.7248L30.8846 30.0294C30.6739 29.8187 30.6739 29.478 30.8846 29.2672C31.0954 29.0564 31.4361 29.0564 31.6469 29.2672L34.3422 31.9625C34.553 32.1733 34.553 32.514 34.3422 32.7248C34.2371 32.8299 34.0991 32.8827 33.9611 32.8827Z" fill="#222222"/>
<path d="M33.9611 45.8202C33.8231 45.8202 33.6851 45.7674 33.58 45.6623C33.3692 45.4515 33.3692 45.1108 33.58 44.9L36.2753 42.2047C36.486 41.9939 36.8267 41.9939 37.0375 42.2047C37.2483 42.4155 37.2483 42.7562 37.0375 42.9669L34.3422 45.6623C34.2371 45.7674 34.0991 45.8202 33.9611 45.8202Z" fill="#222222"/>
<path d="M36.6564 45.8202C36.5184 45.8202 36.3804 45.7674 36.2753 45.6623L33.58 42.9669C33.3692 42.7562 33.3692 42.4155 33.58 42.2047C33.7907 41.9939 34.1314 41.9939 34.3422 42.2047L37.0375 44.9C37.2483 45.1108 37.2483 45.4515 37.0375 45.6623C36.9324 45.7674 36.7944 45.8202 36.6564 45.8202Z" fill="#222222"/>
<path d="M38.2736 39.8905C38.1356 39.8905 37.9976 39.8377 37.8925 39.7326C37.6817 39.5218 37.6817 39.1811 37.8925 38.9703L40.5878 36.275C40.7985 36.0642 41.1392 36.0642 41.35 36.275C41.5608 36.4858 41.5608 36.8265 41.35 37.0373L38.6547 39.7326C38.5496 39.8377 38.4116 39.8905 38.2736 39.8905Z" fill="#222222"/>
<path d="M40.9689 39.8905C40.8309 39.8905 40.6929 39.8377 40.5878 39.7326L37.8925 37.0373C37.6817 36.8265 37.6817 36.4858 37.8925 36.275C38.1032 36.0642 38.4439 36.0642 38.6547 36.275L41.35 38.9703C41.5608 39.1811 41.5608 39.5218 41.35 39.7326C41.2449 39.8377 41.1069 39.8905 40.9689 39.8905Z" fill="#222222"/>
<path d="M40.4297 29.1094C39.2405 29.1094 38.2734 28.1423 38.2734 26.9531C38.2734 25.764 39.2405 24.7969 40.4297 24.7969C41.6189 24.7969 42.5859 25.764 42.5859 26.9531C42.5859 28.1423 41.6189 29.1094 40.4297 29.1094ZM40.4297 25.875C39.8351 25.875 39.3516 26.3585 39.3516 26.9531C39.3516 27.5477 39.8351 28.0312 40.4297 28.0312C41.0243 28.0312 41.5078 27.5477 41.5078 26.9531C41.5078 26.3585 41.0243 25.875 40.4297 25.875Z" fill="#406A80"/>
<path d="M29.1094 44.7422C27.9202 44.7422 26.9531 43.7751 26.9531 42.5859C26.9531 41.3968 27.9202 40.4297 29.1094 40.4297C30.2985 40.4297 31.2656 41.3968 31.2656 42.5859C31.2656 43.7751 30.2985 44.7422 29.1094 44.7422ZM29.1094 41.5078C28.5148 41.5078 28.0312 41.9908 28.0312 42.5859C28.0312 43.1811 28.5148 43.6641 29.1094 43.6641C29.704 43.6641 30.1875 43.1811 30.1875 42.5859C30.1875 41.9908 29.704 41.5078 29.1094 41.5078Z" fill="#406A80"/>
<path d="M29.1094 39.3516C28.8113 39.3516 28.5703 39.1101 28.5703 38.8125C28.5703 35.7878 32.0936 35.1264 35.2024 34.5437C37.6131 34.0919 39.8906 33.665 39.8906 32.3438V31.2656C39.8906 30.9681 40.1316 30.7266 40.4297 30.7266C40.7278 30.7266 40.9688 30.9681 40.9688 31.2656V32.3438C40.9688 34.5593 38.1381 35.0903 35.4008 35.6035C32.0327 36.2347 29.6484 36.8347 29.6484 38.8125C29.6484 39.1101 29.4075 39.3516 29.1094 39.3516Z" fill="#406A80"/>
<path d="M42.047 32.3436C41.909 32.3436 41.771 32.2908 41.6659 32.1857L40.4298 30.9496L39.1938 32.1857C38.983 32.3965 38.6423 32.3965 38.4315 32.1857C38.2207 31.9749 38.2207 31.6342 38.4315 31.4235L40.0487 29.8063C40.2595 29.5955 40.6002 29.5955 40.8109 29.8063L42.4281 31.4235C42.6389 31.6342 42.6389 31.9749 42.4281 32.1857C42.323 32.2908 42.185 32.3436 42.047 32.3436Z" fill="#406A80"/>
<path d="M55.5234 22.1016H12.9375V22.6406H55.5234V22.1016Z" fill="#B3B3B3"/>
</g>
<defs>
<clipPath id="clip0_68_12">
<rect width="69" height="69" fill="white"/>
</clipPath>
</defs>
</svg>
