<svg width="40" height="40" viewBox="0 0 40 40" fill="none" xmlns="http://www.w3.org/2000/svg">
<path d="M4.16868 4.05239H12.8635L15.6655 11.1236L11.1632 14.153C10.8981 14.3315 10.6807 14.5733 10.5304 14.857C10.3801 15.1407 10.3014 15.4574 10.3015 15.7791C10.3073 15.9628 10.3015 15.781 10.3015 15.781V15.8221C10.3026 15.9095 10.3065 15.9968 10.3131 16.084C10.3247 16.2442 10.3441 16.4612 10.3809 16.7289C10.4564 17.2566 10.6016 17.9837 10.8844 18.8397C11.4537 20.5596 12.5691 22.7858 14.7418 24.9786C16.9146 27.1715 19.1202 28.2973 20.8224 28.8719C21.6725 29.1573 22.3909 29.3019 22.9176 29.3801C23.2149 29.422 23.5142 29.4481 23.8142 29.4582L23.8394 29.4602H23.8549C23.8549 29.4602 24.0718 29.4485 23.8568 29.4602C24.2164 29.46 24.5687 29.3588 24.8745 29.1679C25.1803 28.977 25.4273 28.704 25.588 28.3794L26.8855 25.7604L35.4757 27.2067V35.6499C31.3878 36.246 20.346 36.8343 11.6706 28.0784C2.99517 19.3225 3.57612 8.17627 4.16868 4.05239ZM14.3158 16.7289L17.815 14.3758C18.5543 13.8781 19.1015 13.139 19.3648 12.2825C19.6282 11.426 19.5918 10.5041 19.2616 9.67142L16.4595 2.60023C16.1719 1.87495 15.6757 1.25326 15.0347 0.815358C14.3937 0.377459 13.6375 0.143441 12.8635 0.143494H4.06798C2.30772 0.143494 0.652039 1.37675 0.363504 3.30383C-0.294897 7.68571 -1.18761 20.6281 8.93241 30.842C19.0524 41.0559 31.8758 40.153 36.2173 39.4904C38.1267 39.1973 39.3486 37.5282 39.3486 35.7516V27.2067C39.3487 26.2814 39.0236 25.3861 38.4311 24.68C37.8386 23.9739 37.0171 23.5028 36.1128 23.3506L27.5226 21.9063C26.7056 21.7686 25.8664 21.899 25.1282 22.2782C24.39 22.6574 23.7917 23.2655 23.4211 24.0132L22.7511 25.3676C22.5142 25.3087 22.2797 25.2402 22.0482 25.1624C20.8475 24.7598 19.1802 23.9311 17.48 22.2151C15.7798 20.4991 14.9587 18.8163 14.5598 17.6026C14.4646 17.3157 14.3838 17.0241 14.3177 16.7289H14.3158Z" fill="white"/>
</svg>
