<svg width="17" height="18" viewBox="0 0 17 18" fill="none" xmlns="http://www.w3.org/2000/svg">
<g clip-path="url(#clip0_95_2947)">
<path fill-rule="evenodd" clip-rule="evenodd" d="M13.0764 10.9615C11.9191 10.9615 10.9089 11.5664 10.3276 12.4732L6.82629 10.4725C7.05252 10.0279 7.19178 9.53223 7.19178 9C7.19178 8.67111 7.12837 8.35988 7.03814 8.06042L10.6807 5.97923C11.2777 6.62654 12.1264 7.03846 13.0764 7.03846C14.8823 7.03846 16.3456 5.57515 16.3456 3.76923C16.3456 1.96331 14.8823 0.5 13.0764 0.5C11.2705 0.5 9.80717 1.96331 9.80717 3.76923C9.80717 4.09812 9.87058 4.40934 9.96081 4.70945L6.31824 6.79C5.72128 6.14334 4.87259 5.73077 3.92255 5.73077C2.11663 5.73077 0.65332 7.19408 0.65332 9C0.65332 10.8059 2.11663 12.2692 3.92255 12.2692C4.66794 12.2692 5.34727 12.0103 5.89716 11.5905L9.84312 13.8777C9.83005 13.9954 9.80717 14.1092 9.80717 14.2308C9.80717 16.0367 11.2705 17.5 13.0764 17.5C14.8823 17.5 16.3456 16.0367 16.3456 14.2308C16.3456 12.4248 14.8823 10.9615 13.0764 10.9615Z" fill="white"/>
</g>
<defs>
<clipPath id="clip0_95_2947">
<rect width="17" height="17" fill="white" transform="translate(0 0.5)"/>
</clipPath>
</defs>
</svg>
