<svg width="45" height="39" viewBox="0 0 45 39" fill="none" xmlns="http://www.w3.org/2000/svg">
<path d="M42.5424 2.18765H27.4533C27.4694 2.10024 27.4809 2.01053 27.4809 1.91699C27.4809 1.07053 26.7939 0.383545 25.9474 0.383545H18.8514C18.0049 0.383545 17.3179 1.07053 17.3179 1.91699C17.3179 2.00977 17.3295 2.09947 17.3456 2.18765H2.25642C1.23131 2.18765 0.399414 3.01954 0.399414 4.04465C0.399414 5.07053 1.23054 5.90243 2.25642 5.90243H4.54893V29.5589C4.54893 30.328 5.17227 30.9513 5.94206 30.9513H19.2831L14.7203 35.5133C14.1767 36.0569 14.1767 36.9371 14.7203 37.4815C15.2631 38.0259 16.1456 38.0259 16.69 37.4815L21.2489 32.9241V37.1871C21.2489 37.8219 21.7634 38.3372 22.399 38.3372C23.0346 38.3372 23.5491 37.8219 23.5491 37.1871V33.276L28.1073 37.8342C28.3787 38.1064 28.7345 38.2421 29.091 38.2421C29.4475 38.2421 29.8041 38.1064 30.0762 37.8342C30.6198 37.2906 30.6198 36.4088 30.0762 35.8652L25.1615 30.9513H38.856C39.6258 30.9513 40.2484 30.328 40.2484 29.5589V5.90243H42.5409C43.5668 5.90243 44.3979 5.07053 44.3979 4.04465C44.3994 3.01954 43.5683 2.18765 42.5424 2.18765ZM37.4644 28.165H7.33367V5.90243H37.4644V28.165Z" fill="white"/>
<path d="M9.59074 24.4081C9.97104 24.4081 10.3521 24.267 10.6488 23.9825L15.2768 19.5662L19.0805 22.7696C19.3979 23.0379 19.8081 23.1683 20.2221 23.123C20.6346 23.0809 21.0126 22.8746 21.2703 22.5503L26.2862 16.2256L28.696 17.7751C29.3446 18.1922 30.2034 18.0627 30.6994 17.4715L33.3592 14.305V15.4635C33.3592 16.3099 34.0462 16.9969 34.8926 16.9969C35.7391 16.9969 36.4261 16.3099 36.4261 15.4635V10.0964C36.4261 10.0404 36.4154 9.98676 36.41 9.93232C36.4069 9.90089 36.4062 9.86945 36.4 9.83802C36.3785 9.70844 36.341 9.585 36.2881 9.46845C36.285 9.46232 36.285 9.45465 36.2819 9.44929C36.275 9.43319 36.2628 9.42245 36.2551 9.40712C36.2045 9.30744 36.1432 9.21544 36.0749 9.1311C36.055 9.10656 36.0366 9.08203 36.0151 9.05902C35.9292 8.96625 35.8349 8.88344 35.7284 8.81367C35.7123 8.80217 35.6923 8.79527 35.6747 8.78454C35.5819 8.72933 35.4815 8.6841 35.3764 8.64883C35.345 8.63809 35.3143 8.62813 35.2821 8.61969C35.1572 8.58672 35.0283 8.56372 34.8926 8.56372H29.7809C28.9344 8.56372 28.2474 9.2507 28.2474 10.0972C28.2474 10.9436 28.9344 11.6306 29.7809 11.6306H31.6019L29.2204 14.4667L26.7769 12.8957C26.1136 12.4702 25.235 12.6159 24.7466 13.2323L19.8495 19.4075L16.2022 16.3352C15.6034 15.8315 14.7217 15.8583 14.1558 16.3989L8.53343 21.7659C7.92082 22.351 7.89781 23.3209 8.48282 23.9335C8.78185 24.2486 9.18591 24.4081 9.59074 24.4081Z" fill="white"/>
</svg>
