<svg width="27" height="28" viewBox="0 0 27 28" fill="none" xmlns="http://www.w3.org/2000/svg">
<path d="M18.6655 8.97127C18.6706 8.97127 18.6773 8.97127 18.6841 8.97127C18.8604 8.97127 19.0241 9.02612 19.1583 9.12062L19.1557 9.11893C19.2536 9.20415 19.3194 9.32396 19.3355 9.45896V9.46149C19.3523 9.56443 19.3616 9.68256 19.3616 9.80321C19.3616 9.85806 19.3599 9.91206 19.3557 9.96605V9.95846C19.1659 11.9573 18.3424 16.8046 17.9239 19.0423C17.7467 19.9898 17.3982 20.3071 17.0607 20.3374C16.3275 20.4058 15.7706 19.8531 15.0602 19.3874C13.9481 18.6575 13.3195 18.2036 12.2404 17.4923C10.9925 16.6713 11.8016 16.2182 12.512 15.4808C12.6985 15.2867 15.9309 12.3463 15.9942 12.0796C15.9976 12.0636 15.9993 12.0459 15.9993 12.0273C15.9993 11.9615 15.9748 11.9016 15.9351 11.8561C15.8913 11.8274 15.8364 11.8113 15.779 11.8113C15.7411 11.8113 15.7048 11.8189 15.671 11.8316L15.6727 11.8307C15.5614 11.8561 13.785 13.03 10.3436 15.3526C9.96814 15.6487 9.49395 15.836 8.97758 15.858H8.97252C8.24098 15.7694 7.57695 15.6065 6.94667 15.3745L7.00911 15.3947C6.21767 15.1366 5.58908 15.0007 5.64308 14.5636C5.67177 14.3364 5.98508 14.1038 6.58302 13.8659C10.2663 12.2611 12.7224 11.2033 13.9515 10.6925C15.3074 9.97281 16.8793 9.38049 18.5322 8.99659L18.6647 8.97043L18.6655 8.97127ZM13.441 1.36487C6.4362 1.38174 0.763672 7.0644 0.763672 14.0717C0.763672 21.0892 6.45223 26.7786 13.4705 26.7786C20.4889 26.7786 26.1774 21.0901 26.1774 14.0717C26.1774 7.0644 20.5049 1.38174 13.5018 1.36487H13.5001C13.4804 1.36487 13.4607 1.36487 13.441 1.36487Z" fill="#77798F"/>
</svg>
