<svg width="50" height="50" viewBox="0 0 50 50" fill="none" xmlns="http://www.w3.org/2000/svg">
<path d="M18.7509 26.0417L13.5426 31.25L18.7509 36.4584L23.9592 31.25L18.7509 26.0417ZM31.2509 5.20837C27.8333 5.20843 24.5421 6.50072 22.0375 8.82603C19.5329 11.1513 18.0001 14.3377 17.7467 17.7459C15.1611 17.9381 12.685 18.8686 10.6126 20.4267C8.54031 21.9849 6.95884 24.1052 6.05617 26.5357C5.1535 28.9663 4.96757 31.6049 5.52048 34.138C6.07339 36.6712 7.34189 38.9923 9.17525 40.8257C11.0086 42.659 13.3298 43.9275 15.8629 44.4804C18.396 45.0334 21.0346 44.8474 23.4652 43.9448C25.8957 43.0421 28.0161 41.4606 29.5742 39.3883C31.1324 37.3159 32.0628 34.8398 32.2551 32.2542C35.7493 31.9936 39.0066 30.3887 41.3423 27.7768C43.678 25.1648 44.9103 21.7492 44.7803 18.2476C44.6503 14.746 43.1681 11.4312 40.6451 8.99963C38.1221 6.56807 34.7549 5.20913 31.2509 5.20837ZM31.9238 28.1021C31.3402 25.669 30.0948 23.4447 28.3255 21.6754C26.5562 19.9061 24.332 18.6607 21.8988 18.0771C22.028 16.285 22.6695 14.5678 23.7469 13.1299C24.8243 11.692 26.2922 10.594 27.9759 9.96654C29.6595 9.33913 31.488 9.20876 33.2437 9.59094C34.9993 9.97313 36.6081 10.8518 37.8787 12.1223C39.1492 13.3928 40.0278 15.0016 40.41 16.7573C40.7922 18.5129 40.6618 20.3414 40.0344 22.0251C39.407 23.7087 38.309 25.1766 36.871 26.254C35.4331 27.3314 33.7159 27.9729 31.9238 28.1021ZM28.1259 31.25C28.1259 33.7364 27.1382 36.121 25.38 37.8792C23.6219 39.6373 21.2373 40.625 18.7509 40.625C16.2645 40.625 13.8799 39.6373 12.1218 37.8792C10.3636 36.121 9.37589 33.7364 9.37589 31.25C9.37589 28.7636 10.3636 26.3791 12.1218 24.6209C13.8799 22.8628 16.2645 21.875 18.7509 21.875C21.2373 21.875 23.6219 22.8628 25.38 24.6209C27.1382 26.3791 28.1259 28.7636 28.1259 31.25ZM6.25089 14.5834C6.25089 12.3732 7.12886 10.2536 8.69166 8.69082C10.2545 7.12801 12.3741 6.25004 14.5842 6.25004H17.7092V10.4167H14.5842C13.4792 10.4167 12.4193 10.8557 11.6379 11.6371C10.8565 12.4185 10.4176 13.4783 10.4176 14.5834V17.7084H6.25089V14.5834ZM39.5842 35.4167V32.2917H43.7509V35.4167C43.7509 37.6268 42.8729 39.7465 41.3101 41.3093C39.7473 42.8721 37.6277 43.75 35.4176 43.75H32.2926V39.5834H35.4176C36.5226 39.5834 37.5824 39.1444 38.3638 38.363C39.1452 37.5816 39.5842 36.5218 39.5842 35.4167Z" fill="#1B1B1B"/>
</svg>
