<svg width="61" height="60" viewBox="0 0 61 60" fill="none" xmlns="http://www.w3.org/2000/svg">
<g clip-path="url(#clip0_95_3557)">
<path fill-rule="evenodd" clip-rule="evenodd" d="M22.3157 12.4425L13.0345 21.7237C12.3315 22.427 11.9365 23.3806 11.9365 24.375C11.9365 25.3693 12.3315 26.323 13.0345 27.0262L22.3157 36.3075C22.664 36.6561 23.0776 36.9327 23.5328 37.1215C23.9881 37.3102 24.476 37.4073 24.9688 37.4073C25.4617 37.4073 25.9496 37.3102 26.4049 37.1215C26.8601 36.9327 27.2737 36.6561 27.622 36.3075L36.8995 27.0262C37.6025 26.323 37.9974 25.3693 37.9974 24.375C37.9974 23.3806 37.6025 22.427 36.8995 21.7237L27.622 12.4425C27.2737 12.0938 26.8601 11.8172 26.4049 11.6285C25.9496 11.4398 25.4617 11.3427 24.9688 11.3427C24.476 11.3427 23.9881 11.4398 23.5328 11.6285C23.0776 11.8172 22.664 12.0938 22.3157 12.4425ZM24.967 31.005L18.3407 24.375L24.967 17.745L31.597 24.375L24.967 31.005Z" fill="white"/>
<path fill-rule="evenodd" clip-rule="evenodd" d="M0.599613 24.375C0.596666 18.8595 2.46438 13.5061 5.89757 9.18938C9.33077 4.87269 14.1265 1.84798 19.5011 0.609459C24.8757 -0.629065 30.5115 -0.00817834 35.4876 2.37067C40.4638 4.74952 44.486 8.74569 46.8971 13.7062C50.3874 15.4078 53.4208 17.9185 55.7445 21.0294C58.0682 24.1403 59.6151 27.7614 60.2563 31.5911C60.8976 35.4207 60.6146 39.3482 59.431 43.0463C58.2474 46.7445 56.1974 50.1064 53.4517 52.8521C50.7061 55.5978 47.3442 57.6478 43.646 58.8314C39.9478 60.015 36.0203 60.298 32.1907 59.6567C28.361 59.0155 24.74 57.4686 21.629 55.1449C18.5181 52.8211 16.0074 49.7878 14.3059 46.2975C10.1953 44.2965 6.73028 41.1797 4.30664 37.3032C1.883 33.4267 0.598425 28.9468 0.599613 24.375ZM24.9746 5.62499C20.0018 5.62499 15.2327 7.60043 11.7164 11.1167C8.20005 14.633 6.22461 19.4022 6.22461 24.375C6.22461 29.3478 8.20005 34.1169 11.7164 37.6332C15.2327 41.1495 20.0018 43.125 24.9746 43.125C29.9474 43.125 34.7166 41.1495 38.2329 37.6332C41.7492 34.1169 43.7246 29.3478 43.7246 24.375C43.7246 19.4022 41.7492 14.633 38.2329 11.1167C34.7166 7.60043 29.9474 5.62499 24.9746 5.62499ZM49.3496 24.375C49.3496 23.6212 49.3121 22.875 49.2484 22.1362C51.0392 23.8659 52.4676 25.9348 53.4503 28.2224C54.4329 30.51 54.9502 32.9704 54.9718 35.46C54.9934 37.9496 54.519 40.4186 53.5763 42.7229C52.6335 45.0272 51.2413 47.1207 49.4808 48.8811C47.7203 50.6416 45.6268 52.0339 43.3225 52.9766C41.0182 53.9194 38.5492 54.3938 36.0596 54.3722C33.57 54.3506 31.1096 53.8333 28.822 52.8506C26.5345 51.868 24.4655 50.4396 22.7359 48.6487C26.1114 48.9601 29.5148 48.5639 32.7286 47.4856C35.9423 46.4072 38.8958 44.6704 41.4004 42.386C43.905 40.1017 45.9056 37.32 47.2743 34.2188C48.643 31.1175 49.3499 27.7649 49.3496 24.375Z" fill="white"/>
</g>
<defs>
<clipPath id="clip0_95_3557">
<rect width="60" height="60" fill="white" transform="translate(0.599609)"/>
</clipPath>
</defs>
</svg>
