<svg width="38" height="32" viewBox="0 0 38 32" fill="none" xmlns="http://www.w3.org/2000/svg">
<path d="M34.1098 8.24823C34.1329 8.5834 34.1329 8.91827 34.1329 9.25641C34.1329 19.558 26.2904 31.4389 11.9504 31.4389V31.433C7.71403 31.4389 3.56545 30.2255 0 27.9376C0.616016 28.0118 1.235 28.0489 1.85547 28.0504C5.36664 28.0532 8.77682 26.8755 11.538 24.7067C9.91116 24.6759 8.33455 24.1376 7.02864 23.1668C5.72274 22.1961 4.75282 20.8416 4.25452 19.2926C5.42331 19.5182 6.62744 19.4716 7.77456 19.1581C4.13725 18.4233 1.52059 15.2278 1.52059 11.5165V11.4177C2.60487 12.0217 3.81842 12.3564 5.05905 12.3935C1.63281 10.104 0.577422 5.54666 2.64605 1.98387C4.60331 4.39231 7.04532 6.3621 9.81345 7.7653C12.5816 9.16849 15.6139 9.9737 18.7135 10.1286C18.4046 8.79827 18.4503 7.4101 18.8461 6.10295C19.242 4.79581 19.9741 3.61549 20.9692 2.68004C24.1092 -0.27179 29.0477 -0.120384 31.9993 3.01818C33.7452 2.67343 35.4196 2.03328 36.9502 1.1253C36.3682 2.93051 35.1503 4.46288 33.5231 5.43741C35.0686 5.2552 36.5778 4.84137 38 4.20983C36.9538 5.77663 35.6364 7.14419 34.1098 8.24823Z" fill="url(#paint0_linear_26_1170)"/>
<defs>
<linearGradient id="paint0_linear_26_1170" x1="19" y1="0.561523" x2="19" y2="31.4389" gradientUnits="userSpaceOnUse">
<stop stop-color="#8EF3FF"/>
<stop offset="1" stop-color="#00E5FF"/>
</linearGradient>
</defs>
</svg>
