<svg width="28" height="27" viewBox="0 0 28 27" fill="none" xmlns="http://www.w3.org/2000/svg">
<g clip-path="url(#clip0_95_3861)">
<path d="M8.99393 24.4686C19.1801 24.4686 24.7531 16.0274 24.7531 8.70944C24.7531 8.47214 24.7478 8.22956 24.7372 7.99225C25.8214 7.20824 26.7569 6.23713 27.5 5.12456C26.4903 5.57377 25.4183 5.86715 24.3206 5.99468C25.4764 5.30187 26.3418 4.2135 26.7564 2.93134C25.6691 3.57572 24.48 4.03029 23.2401 4.27553C22.4047 3.38785 21.3001 2.8001 20.0971 2.60315C18.8942 2.40621 17.6598 2.61103 16.585 3.18596C15.5101 3.76088 14.6545 4.67389 14.1506 5.78382C13.6466 6.89375 13.5224 8.13879 13.797 9.32643C11.5953 9.21595 9.44143 8.64401 7.47498 7.64771C5.50853 6.6514 3.7734 5.25296 2.38209 3.54305C1.67495 4.76225 1.45856 6.20495 1.77691 7.57795C2.09526 8.95095 2.92445 10.1512 4.09596 10.9348C3.21646 10.9069 2.35622 10.6701 1.58633 10.244V10.3126C1.58554 11.592 2.02786 12.8323 2.8381 13.8225C3.64834 14.8127 4.77649 15.4917 6.03078 15.7442C5.21606 15.9671 4.36098 15.9996 3.5317 15.8391C3.88564 16.9395 4.57427 17.9018 5.50149 18.592C6.42871 19.2821 7.54826 19.6655 8.70389 19.6887C6.74198 21.2298 4.31845 22.0657 1.82363 22.0618C1.3812 22.0611 0.939199 22.034 0.5 21.9806C3.03446 23.6066 5.98272 24.4702 8.99393 24.4686Z" fill="white"/>
</g>
<defs>
<clipPath id="clip0_95_3861">
<rect width="27" height="27" fill="white" transform="translate(0.5)"/>
</clipPath>
</defs>
</svg>
