<svg width="30" height="27" viewBox="0 0 30 27" fill="none" xmlns="http://www.w3.org/2000/svg">
<path d="M27.8571 12.5714V9.78571C27.8571 8.75999 27.0256 7.92857 26 7.92857H5.57143C4.54721 7.92857 3.71429 7.09564 3.71429 6.07143C3.71429 5.04721 4.54721 4.21429 5.57143 4.21429H26C27.0256 4.21429 27.8571 3.38275 27.8571 2.35714C27.8571 1.33154 27.0256 0.5 26 0.5H5.57143C2.49913 0.5 0 2.99919 0 6.07143V7.92857V22.7857C0 24.837 1.66307 26.5 3.71429 26.5H26C27.0256 26.5 27.8571 25.6686 27.8571 24.6429V21.8571C28.8827 21.8571 29.7143 21.0257 29.7143 20V14.4286C29.7143 13.4028 28.8827 12.5714 27.8571 12.5714ZM25.0714 19.0714C24.0458 19.0714 23.2143 18.24 23.2143 17.2143C23.2143 16.1886 24.0458 15.3571 25.0714 15.3571C26.097 15.3571 26.9286 16.1886 26.9286 17.2143C26.9286 18.24 26.097 19.0714 25.0714 19.0714Z" fill="#EBEBEB"/>
</svg>
